<svg width="62" height="49" viewBox="0 0 62 49" fill="none" xmlns="http://www.w3.org/2000/svg">
<path d="M55.3169 0H6.14632C2.76584 0 0 2.74389 0 6.09754V42.6828C0 46.0364 2.76584 48.7803 6.14632 48.7803H55.3169C58.6973 48.7803 61.4632 46.0364 61.4632 42.6828V6.09754C61.4632 2.74389 58.6973 0 55.3169 0ZM54.0876 12.9573L33.9891 25.4267C31.9916 26.6767 29.4716 26.6767 27.474 25.4267L7.37558 12.9573C7.06743 12.7857 6.79758 12.5538 6.58236 12.2757C6.36715 11.9977 6.21105 11.6792 6.1235 11.3395C6.03596 10.9998 6.01879 10.6461 6.07304 10.2997C6.1273 9.95325 6.25184 9.62135 6.43913 9.32405C6.62643 9.02676 6.87258 8.77026 7.16269 8.57007C7.4528 8.36989 7.78084 8.23019 8.12696 8.15942C8.47307 8.08865 8.83006 8.08828 9.17631 8.15835C9.52257 8.22841 9.8509 8.36745 10.1414 8.56704L30.7316 21.3414L51.3218 8.56704C51.6123 8.36745 51.9406 8.22841 52.2869 8.15835C52.6331 8.08828 52.9901 8.08865 53.3362 8.15942C53.6823 8.23019 54.0104 8.36989 54.3005 8.57007C54.5906 8.77026 54.8368 9.02676 55.0241 9.32405C55.2113 9.62135 55.3359 9.95325 55.3901 10.2997C55.4444 10.6461 55.4272 10.9998 55.3397 11.3395C55.2521 11.6792 55.096 11.9977 54.8808 12.2757C54.6656 12.5538 54.3958 12.7857 54.0876 12.9573Z" fill="white" fill-opacity="0.28"/>
</svg>
