<svg width="63" height="60" viewBox="0 0 63 60" fill="none" xmlns="http://www.w3.org/2000/svg">
<path d="M50 0C53.3152 0 56.4946 1.31696 58.8388 3.66116C61.183 6.00537 62.5 9.18479 62.5 12.5V37.5C62.5 40.8152 61.183 43.9946 58.8388 46.3388C56.4946 48.683 53.3152 50 50 50H35.2375L20.3562 58.9281C19.9081 59.1971 19.3996 59.3493 18.8774 59.3709C18.3552 59.3925 17.8359 59.2828 17.3671 59.0518C16.8982 58.8208 16.4948 58.4759 16.1937 58.0487C15.8927 57.6214 15.7036 57.1255 15.6438 56.6063L15.625 56.25V50H12.5C9.29299 50 6.20866 48.7674 3.88496 46.5571C1.56126 44.3468 0.175976 41.328 0.0156254 38.125L0 37.5V12.5C0 9.18479 1.31696 6.00537 3.66117 3.66116C6.00537 1.31696 9.18479 0 12.5 0H50ZM37.5 28.125H18.75C17.9212 28.125 17.1263 28.4542 16.5403 29.0403C15.9542 29.6263 15.625 30.4212 15.625 31.25C15.625 32.0788 15.9542 32.8737 16.5403 33.4597C17.1263 34.0458 17.9212 34.375 18.75 34.375H37.5C38.3288 34.375 39.1237 34.0458 39.7097 33.4597C40.2958 32.8737 40.625 32.0788 40.625 31.25C40.625 30.4212 40.2958 29.6263 39.7097 29.0403C39.1237 28.4542 38.3288 28.125 37.5 28.125ZM43.75 15.625H18.75C17.9212 15.625 17.1263 15.9542 16.5403 16.5403C15.9542 17.1263 15.625 17.9212 15.625 18.75C15.625 19.5788 15.9542 20.3737 16.5403 20.9597C17.1263 21.5458 17.9212 21.875 18.75 21.875H43.75C44.5788 21.875 45.3737 21.5458 45.9597 20.9597C46.5458 20.3737 46.875 19.5788 46.875 18.75C46.875 17.9212 46.5458 17.1263 45.9597 16.5403C45.3737 15.9542 44.5788 15.625 43.75 15.625Z" fill="#D9D9D9" fill-opacity="0.28"/>
</svg>
