<svg width="63" height="63" viewBox="0 0 63 63" fill="none" xmlns="http://www.w3.org/2000/svg">
<path fill-rule="evenodd" clip-rule="evenodd" d="M52.5 0C55.2848 0 57.9555 1.10625 59.9246 3.07538C61.8938 5.04451 63 7.71523 63 10.5V52.5C63 55.2848 61.8938 57.9555 59.9246 59.9246C57.9555 61.8938 55.2848 63 52.5 63H10.5C7.71523 63 5.04451 61.8938 3.07538 59.9246C1.10625 57.9555 0 55.2848 0 52.5V10.5C0 7.71523 1.10625 5.04451 3.07538 3.07538C5.04451 1.10625 7.71523 0 10.5 0H52.5ZM17.5 24.5C16.5717 24.5 15.6815 24.8688 15.0251 25.5251C14.3688 26.1815 14 27.0717 14 28V45.5C14 46.4283 14.3688 47.3185 15.0251 47.9749C15.6815 48.6313 16.5717 49 17.5 49C18.4283 49 19.3185 48.6313 19.9749 47.9749C20.6312 47.3185 21 46.4283 21 45.5V28C21 27.0717 20.6312 26.1815 19.9749 25.5251C19.3185 24.8688 18.4283 24.5 17.5 24.5ZM28 21C27.0717 21 26.1815 21.3688 25.5251 22.0251C24.8688 22.6815 24.5 23.5717 24.5 24.5V45.5C24.5 46.4283 24.8688 47.3185 25.5251 47.9749C26.1815 48.6313 27.0717 49 28 49C28.9283 49 29.8185 48.6313 30.4749 47.9749C31.1312 47.3185 31.5 46.4283 31.5 45.5V32.69C32.5675 31.486 34.37 30.072 36.3755 29.2145C37.541 28.7175 39.2945 28.5145 40.5125 28.8995C40.9166 29.002 41.2764 29.2329 41.538 29.5575C41.72 29.8025 42 30.3485 42 31.5V45.5C42 46.4283 42.3688 47.3185 43.0251 47.9749C43.6815 48.6313 44.5717 49 45.5 49C46.4283 49 47.3185 48.6313 47.9749 47.9749C48.6313 47.3185 49 46.4283 49 45.5V31.5C49 29.155 48.405 27.069 47.166 25.396C46.0259 23.8789 44.4303 22.7665 42.6125 22.2215C39.4555 21.231 35.959 21.7805 33.6245 22.7815C32.8771 23.103 32.1491 23.4676 31.444 23.8735C31.2973 23.0671 30.8722 22.3377 30.2428 21.8126C29.6134 21.2874 28.8197 20.9999 28 21ZM17.5 14C16.5717 14 15.6815 14.3688 15.0251 15.0251C14.3688 15.6815 14 16.5717 14 17.5C14 18.4283 14.3688 19.3185 15.0251 19.9749C15.6815 20.6312 16.5717 21 17.5 21C18.4283 21 19.3185 20.6312 19.9749 19.9749C20.6312 19.3185 21 18.4283 21 17.5C21 16.5717 20.6312 15.6815 19.9749 15.0251C19.3185 14.3688 18.4283 14 17.5 14Z" fill="white" fill-opacity="0.28"/>
</svg>
